<!DOCTYPE svg PUBLIC "-//W3C//DTD SVG 20010904//EN" "http://www.w3.org/TR/2001/REC-SVG-20010904/DTD/svg10.dtd">
<svg version="1.0" xmlns="http://www.w3.org/2000/svg" width="1600px" height="1600px" viewBox="0 0 16000 16000" preserveAspectRatio="xMidYMid meet">
<g id="layer101" fill="#281f38" stroke="none">
 <path d="M7615 14395 c-5 -2 -71 -9 -145 -15 -261 -20 -421 -42 -700 -94 -221 -41 -464 -104 -725 -187 -128 -40 -216 -70 -242 -80 -59 -23 -70 -28 -105 -43 -20 -9 -41 -16 -47 -16 -6 0 -19 -4 -29 -9 -9 -5 -33 -16 -52 -24 -19 -8 -56 -24 -82 -36 -26 -12 -50 -21 -53 -21 -25 0 -571 -275 -595 -300 -3 -3 -24 -14 -47 -25 -24 -11 -43 -23 -43 -27 0 -5 -4 -8 -9 -8 -13 0 -135 -73 -139 -82 -2 -5 -10 -8 -17 -8 -7 0 -15 -3 -17 -7 -4 -11 -86 -63 -98 -63 -5 0 -10 -3 -10 -8 0 -4 -16 -16 -35 -26 -19 -10 -42 -26 -52 -35 -10 -9 -45 -34 -78 -56 -33 -22 -69 -48 -79 -57 -11 -10 -23 -18 -27 -18 -4 0 -24 -16 -45 -35 -22 -19 -42 -35 -45 -35 -3 0 -15 -8 -27 -18 -11 -10 -33 -27 -47 -38 -27 -19 -50 -38 -95 -77 -14 -12 -50 -42 -80 -67 -30 -24 -62 -51 -70 -60 -8 -8 -45 -41 -82 -73 -86 -74 -371 -359 -445 -445 -32 -37 -65 -74 -73 -82 -9 -8 -36 -40 -60 -70 -25 -30 -55 -66 -67 -80 -39 -45 -58 -68 -77 -95 -11 -14 -28 -36 -38 -47 -10 -12 -18 -24 -18 -27 0 -3 -16 -23 -35 -45 -19 -21 -35 -41 -35 -45 0 -4 -8 -16 -18 -27 -9 -10 -35 -46 -57 -79 -22 -33 -47 -68 -56 -78 -9 -10 -25 -33 -35 -52 -10 -19 -22 -35 -26 -35 -5 0 -8 -5 -8 -10 0 -12 -52 -94 -62 -98 -5 -2 -8 -10 -8 -17 0 -7 -3 -15 -8 -17 -9 -4 -82 -126 -82 -139 0 -5 -3 -9 -7 -9 -5 0 -17 -19 -28 -43 -11 -23 -22 -44 -25 -47 -25 -24 -300 -570 -300 -595 0 -3 -9 -27 -21 -53 -12 -26 -28 -63 -36 -82 -8 -19 -19 -43 -24 -52 -5 -10 -9 -23 -9 -29 0 -6 -7 -27 -16 -47 -9 -21 -19 -46 -24 -57 -4 -11 -12 -31 -18 -45 -16 -41 -90 -266 -131 -406 -23 -76 -76 -280 -93 -354 -5 -25 -14 -63 -19 -85 -9 -41 -34 -170 -50 -260 -29 -168 -29 -175 -71 -540 -8 -72 -12 -1053 -15 -3528 l-3 -3427 3427 3 c2475 3 3456 7 3528 15 365 42 372 42 540 71 90 16 219 41 260 50 22 5 60 14 85 19 139 31 337 86 515 143 217 69 248 80 347 123 20 9 41 16 47 16 6 0 19 4 29 9 9 5 33 16 52 24 19 8 56 24 82 36 26 12 50 21 53 21 25 0 571 275 595 300 3 3 24 14 47 25 24 11 43 23 43 28 0 4 4 7 9 7 13 0 135 73 139 82 2 5 10 8 17 8 7 0 15 3 17 8 4 10 86 62 98 62 5 0 10 3 10 8 0 4 16 16 35 26 19 10 42 26 52 35 10 9 45 34 78 56 33 22 69 48 79 57 11 10 23 18 27 18 4 0 24 16 45 35 22 19 42 35 45 35 3 0 15 8 27 18 11 10 33 27 47 38 27 19 50 38 95 77 14 12 50 42 80 67 30 24 62 51 70 60 8 8 45 41 82 73 86 74 371 359 445 445 32 37 65 74 73 82 9 8 36 40 60 70 25 30 55 66 67 80 39 45 58 68 77 95 11 14 28 36 38 47 10 12 18 24 18 27 0 3 16 23 35 45 19 21 35 41 35 45 0 4 8 16 18 27 9 10 35 46 57 79 22 33 47 68 56 78 9 10 25 33 35 52 10 19 22 35 26 35 5 0 8 5 8 10 0 12 52 94 63 98 4 2 7 10 7 17 0 7 3 15 8 17 9 4 82 126 82 139 0 5 3 9 8 9 4 0 16 19 27 43 11 23 22 44 25 47 25 24 300 570 300 595 0 3 9 27 21 53 12 26 28 63 36 82 8 19 19 43 24 52 5 10 9 23 9 29 0 6 7 27 16 47 15 35 20 46 43 105 17 41 92 274 130 403 23 76 76 280 93 354 5 25 14 63 19 85 14 62 43 216 69 375 12 75 34 259 52 445 8 81 13 282 13 535 0 253 -5 454 -13 535 -30 312 -47 430 -96 695 -41 221 -104 464 -187 725 -69 217 -80 248 -123 347 -9 20 -16 41 -16 47 0 6 -4 19 -9 29 -5 9 -16 33 -24 52 -8 19 -24 56 -36 82 -12 26 -21 50 -21 53 0 25 -275 571 -300 595 -3 3 -14 24 -25 47 -11 24 -23 43 -27 43 -5 0 -8 4 -8 9 0 13 -73 135 -82 139 -5 2 -8 10 -8 17 0 7 -3 15 -7 17 -11 4 -63 86 -63 98 0 5 -3 10 -8 10 -4 0 -16 16 -26 35 -10 19 -26 42 -35 52 -9 10 -34 45 -56 78 -22 33 -48 69 -57 79 -10 11 -18 23 -18 27 0 4 -16 24 -35 45 -19 22 -35 42 -35 45 0 3 -8 15 -18 27 -10 11 -27 33 -38 47 -19 27 -38 50 -77 95 -12 14 -42 50 -67 80 -24 30 -51 62 -60 70 -8 8 -41 45 -73 82 -74 86 -359 371 -445 445 -37 32 -74 65 -82 73 -8 9 -40 36 -70 60 -30 25 -66 55 -80 67 -45 39 -68 58 -95 77 -14 11 -36 28 -47 38 -12 10 -24 18 -27 18 -3 0 -23 16 -45 35 -21 19 -41 35 -45 35 -4 0 -16 8 -27 18 -10 9 -46 35 -79 57 -33 22 -68 47 -78 56 -10 9 -33 25 -52 35 -19 10 -35 22 -35 26 0 5 -5 8 -10 8 -12 0 -94 52 -98 63 -2 4 -10 7 -17 7 -7 0 -15 3 -17 8 -4 9 -126 82 -139 82 -5 0 -9 3 -9 8 0 4 -19 16 -43 27 -23 11 -44 22 -47 25 -24 25 -570 300 -595 300 -3 0 -27 9 -53 21 -26 12 -63 28 -82 36 -19 8 -43 19 -52 24 -10 5 -23 9 -29 9 -6 0 -27 7 -47 16 -35 15 -46 20 -104 43 -42 17 -275 92 -404 130 -76 23 -280 76 -354 93 -25 5 -63 14 -85 19 -62 14 -217 43 -375 69 -64 11 -230 31 -425 51 -96 10 -919 23 -940 14z"/>
 </g>
<g id="layer102" fill="#26324b" stroke="none">
 <path d="M7615 14395 c-5 -2 -71 -9 -145 -15 -261 -20 -421 -42 -700 -94 -221 -41 -464 -104 -725 -187 -128 -40 -216 -70 -242 -80 -59 -23 -70 -28 -105 -43 -20 -9 -41 -16 -47 -16 -6 0 -19 -4 -29 -9 -9 -5 -33 -16 -52 -24 -19 -8 -56 -24 -82 -36 -26 -12 -50 -21 -53 -21 -25 0 -571 -275 -595 -300 -3 -3 -24 -14 -47 -25 -24 -11 -43 -23 -43 -27 0 -5 -4 -8 -9 -8 -13 0 -135 -73 -139 -82 -2 -5 -10 -8 -17 -8 -7 0 -15 -3 -17 -7 -4 -11 -86 -63 -98 -63 -5 0 -10 -3 -10 -8 0 -4 -16 -16 -35 -26 -19 -10 -42 -26 -52 -35 -10 -9 -45 -34 -78 -56 -33 -22 -69 -48 -79 -57 -11 -10 -23 -18 -27 -18 -4 0 -24 -16 -45 -35 -22 -19 -42 -35 -45 -35 -3 0 -15 -8 -27 -18 -11 -10 -33 -27 -47 -38 -27 -19 -50 -38 -95 -77 -14 -12 -50 -42 -80 -67 -30 -24 -62 -51 -70 -60 -8 -8 -45 -41 -82 -73 -86 -74 -371 -359 -445 -445 -32 -37 -65 -74 -73 -82 -9 -8 -36 -40 -60 -70 -25 -30 -55 -66 -67 -80 -39 -45 -58 -68 -77 -95 -11 -14 -28 -36 -38 -47 -10 -12 -18 -24 -18 -27 0 -3 -16 -23 -35 -45 -19 -21 -35 -41 -35 -45 0 -4 -8 -16 -18 -27 -9 -10 -35 -46 -57 -79 -22 -33 -47 -68 -56 -78 -9 -10 -25 -33 -35 -52 -10 -19 -22 -35 -26 -35 -5 0 -8 -5 -8 -10 0 -12 -52 -94 -62 -98 -5 -2 -8 -10 -8 -17 0 -7 -3 -15 -8 -17 -9 -4 -82 -126 -82 -139 0 -5 -3 -9 -7 -9 -5 0 -17 -19 -28 -43 -11 -23 -22 -44 -25 -47 -25 -24 -300 -570 -300 -595 0 -3 -9 -27 -21 -53 -12 -26 -28 -63 -36 -82 -8 -19 -19 -43 -24 -52 -5 -10 -9 -23 -9 -29 0 -6 -7 -27 -16 -47 -9 -21 -19 -46 -24 -57 -4 -11 -12 -31 -18 -45 -16 -41 -90 -266 -131 -406 -23 -76 -76 -280 -93 -354 -5 -25 -14 -63 -19 -85 -9 -41 -34 -170 -50 -260 -29 -168 -29 -175 -71 -540 -8 -72 -12 -1053 -15 -3528 l-3 -3427 3427 3 c2475 3 3456 7 3528 15 365 42 372 42 540 71 90 16 219 41 260 50 22 5 60 14 85 19 139 31 337 86 515 143 217 69 248 80 347 123 20 9 41 16 47 16 6 0 19 4 29 9 9 5 33 16 52 24 19 8 56 24 82 36 26 12 50 21 53 21 25 0 571 275 595 300 3 3 24 14 47 25 24 11 43 23 43 28 0 4 4 7 9 7 13 0 135 73 139 82 2 5 10 8 17 8 7 0 15 3 17 8 4 10 86 62 98 62 5 0 10 3 10 8 0 4 16 16 35 26 19 10 42 26 52 35 10 9 45 34 78 56 33 22 69 48 79 57 11 10 23 18 27 18 4 0 24 16 45 35 22 19 42 35 45 35 3 0 15 8 27 18 11 10 33 27 47 38 27 19 50 38 95 77 14 12 50 42 80 67 30 24 62 51 70 60 8 8 45 41 82 73 86 74 371 359 445 445 32 37 65 74 73 82 9 8 36 40 60 70 25 30 55 66 67 80 39 45 58 68 77 95 11 14 28 36 38 47 10 12 18 24 18 27 0 3 16 23 35 45 19 21 35 41 35 45 0 4 8 16 18 27 9 10 35 46 57 79 22 33 47 68 56 78 9 10 25 33 35 52 10 19 22 35 26 35 5 0 8 5 8 10 0 12 52 94 63 98 4 2 7 10 7 17 0 7 3 15 8 17 9 4 82 126 82 139 0 5 3 9 8 9 4 0 16 19 27 43 11 23 22 44 25 47 25 24 300 570 300 595 0 3 9 27 21 53 12 26 28 63 36 82 8 19 19 43 24 52 5 10 9 23 9 29 0 6 7 27 16 47 15 35 20 46 43 105 17 41 92 274 130 403 23 76 76 280 93 354 5 25 14 63 19 85 14 62 43 216 69 375 12 75 34 259 52 445 8 81 13 282 13 535 0 253 -5 454 -13 535 -30 312 -47 430 -96 695 -41 221 -104 464 -187 725 -69 217 -80 248 -123 347 -9 20 -16 41 -16 47 0 6 -4 19 -9 29 -5 9 -16 33 -24 52 -8 19 -24 56 -36 82 -12 26 -21 50 -21 53 0 25 -275 571 -300 595 -3 3 -14 24 -25 47 -11 24 -23 43 -27 43 -5 0 -8 4 -8 9 0 13 -73 135 -82 139 -5 2 -8 10 -8 17 0 7 -3 15 -7 17 -11 4 -63 86 -63 98 0 5 -3 10 -8 10 -4 0 -16 16 -26 35 -10 19 -26 42 -35 52 -9 10 -34 45 -56 78 -22 33 -48 69 -57 79 -10 11 -18 23 -18 27 0 4 -16 24 -35 45 -19 22 -35 42 -35 45 0 3 -8 15 -18 27 -10 11 -27 33 -38 47 -19 27 -38 50 -77 95 -12 14 -42 50 -67 80 -24 30 -51 62 -60 70 -8 8 -41 45 -73 82 -74 86 -359 371 -445 445 -37 32 -74 65 -82 73 -8 9 -40 36 -70 60 -30 25 -66 55 -80 67 -45 39 -68 58 -95 77 -14 11 -36 28 -47 38 -12 10 -24 18 -27 18 -3 0 -23 16 -45 35 -21 19 -41 35 -45 35 -4 0 -16 8 -27 18 -10 9 -46 35 -79 57 -33 22 -68 47 -78 56 -10 9 -33 25 -52 35 -19 10 -35 22 -35 26 0 5 -5 8 -10 8 -12 0 -94 52 -98 63 -2 4 -10 7 -17 7 -7 0 -15 3 -17 8 -4 9 -126 82 -139 82 -5 0 -9 3 -9 8 0 4 -19 16 -43 27 -23 11 -44 22 -47 25 -24 25 -570 300 -595 300 -3 0 -27 9 -53 21 -26 12 -63 28 -82 36 -19 8 -43 19 -52 24 -10 5 -23 9 -29 9 -6 0 -27 7 -47 16 -35 15 -46 20 -104 43 -42 17 -275 92 -404 130 -76 23 -280 76 -354 93 -25 5 -63 14 -85 19 -62 14 -217 43 -375 69 -64 11 -230 31 -425 51 -96 10 -919 23 -940 14z m-2381 -8065 c5 -5 14 -7 20 -4 6 2 128 -16 270 -40 212 -35 268 -41 305 -34 25 5 126 27 224 49 263 58 256 58 562 -28 143 -41 275 -78 293 -84 37 -12 53 -41 102 -189 17 -52 35 -103 41 -113 5 -10 18 -44 29 -75 10 -31 30 -88 45 -127 31 -81 62 -167 100 -280 15 -44 33 -93 40 -110 30 -69 36 -84 63 -165 77 -223 93 -248 191 -292 25 -12 81 -42 124 -66 l77 -46 0 -70 c-1 -39 -5 -105 -10 -146 -6 -41 -17 -140 -25 -220 -13 -127 -13 -146 0 -160 8 -9 15 -22 15 -28 0 -7 3 -12 8 -12 4 0 16 -16 26 -35 11 -19 22 -35 26 -35 4 0 22 -21 40 -47 55 -80 113 -155 147 -192 18 -20 33 -42 33 -48 0 -7 4 -13 8 -13 4 0 15 -12 24 -27 28 -47 162 -180 204 -201 21 -11 49 -30 61 -41 12 -12 25 -21 29 -21 3 0 36 -21 72 -46 56 -39 81 -50 160 -66 89 -18 98 -18 176 -3 45 9 98 27 118 41 21 13 42 24 47 24 17 0 151 139 151 156 0 3 9 19 21 35 19 28 56 137 64 189 2 14 6 45 10 70 7 44 3 66 -40 275 -18 87 -27 459 -12 527 6 29 18 44 53 68 25 16 49 30 54 30 4 0 10 3 12 8 4 10 95 72 106 72 5 0 21 10 35 23 15 12 43 31 64 42 42 22 66 37 134 83 26 17 57 36 70 42 35 15 63 33 72 48 4 6 14 12 21 12 7 0 21 9 31 20 10 11 24 20 31 20 8 0 25 18 38 39 14 22 30 42 36 46 5 3 18 21 27 38 15 30 24 104 53 472 5 66 13 152 19 190 5 39 12 124 16 190 l7 120 170 49 170 50 412 -102 411 -102 75 19 c41 11 127 33 190 49 150 39 446 116 587 152 l112 29 398 -79 c978 -193 896 -180 1101 -180 100 0 182 -3 182 -7 -1 -15 -49 -155 -58 -167 -4 -6 -14 -29 -21 -51 -19 -59 -82 -218 -90 -230 -4 -5 -13 -29 -21 -53 -7 -23 -19 -47 -27 -53 -7 -6 -13 -17 -13 -24 0 -8 -6 -26 -14 -42 -8 -15 -44 -86 -79 -158 -94 -189 -157 -308 -173 -326 -8 -8 -14 -19 -14 -24 0 -5 -20 -39 -45 -76 -25 -37 -45 -72 -45 -78 0 -6 -4 -11 -9 -11 -5 0 -11 -8 -15 -17 -7 -22 -20 -42 -67 -108 -20 -28 -43 -64 -52 -80 -8 -17 -24 -39 -34 -50 -11 -11 -28 -34 -38 -50 -28 -44 -109 -149 -117 -153 -5 -2 -8 -9 -8 -15 0 -7 -15 -28 -33 -47 -19 -19 -36 -40 -38 -46 -4 -12 -50 -68 -108 -132 -18 -20 -70 -80 -116 -132 -106 -122 -353 -369 -475 -475 -52 -46 -112 -98 -132 -116 -64 -58 -120 -104 -132 -108 -6 -2 -27 -19 -46 -38 -19 -18 -40 -33 -47 -33 -6 0 -13 -3 -15 -7 -4 -9 -109 -90 -153 -118 -16 -10 -39 -27 -50 -38 -11 -10 -33 -26 -50 -34 -16 -9 -52 -32 -80 -52 -66 -47 -86 -60 -107 -67 -10 -4 -18 -10 -18 -15 0 -5 -5 -9 -11 -9 -6 0 -41 -20 -78 -45 -37 -25 -71 -45 -76 -45 -5 0 -16 -6 -24 -14 -18 -16 -137 -79 -326 -173 -71 -35 -143 -71 -158 -79 -16 -8 -34 -14 -42 -14 -7 0 -18 -6 -24 -13 -6 -8 -30 -19 -53 -26 -24 -7 -47 -17 -53 -21 -11 -9 -166 -70 -230 -91 -22 -7 -45 -17 -51 -21 -11 -8 -58 -25 -218 -78 -32 -11 -66 -20 -76 -20 -9 0 -20 -3 -24 -7 -4 -5 -29 -13 -54 -20 -26 -6 -72 -19 -102 -28 -30 -10 -100 -28 -155 -42 -55 -13 -118 -28 -140 -34 -55 -13 -186 -37 -270 -49 -38 -6 -101 -17 -140 -25 -164 -33 -347 -49 -755 -65 -147 -6 -1445 -10 -3242 -10 l-2998 0 0 2130 0 2130 375 0 375 0 128 31 c70 16 199 48 287 70 l159 40 136 -11 c74 -5 198 -14 275 -20 77 -5 208 -15 290 -22 198 -15 328 -15 450 0 55 6 136 16 180 21 112 14 433 50 475 54 53 5 174 -4 184 -13z"/>
 <path d="M4490 5268 c-32 -8 -62 -21 -187 -80 -63 -29 -185 -156 -218 -225 -80 -169 -84 -185 -84 -323 0 -138 4 -154 84 -323 37 -77 155 -195 232 -232 169 -80 185 -84 323 -84 140 0 150 3 337 91 63 29 185 156 218 225 80 169 84 185 84 323 0 140 -3 150 -91 337 -29 63 -156 185 -225 218 -114 54 -139 64 -178 74 -50 12 -248 12 -295 -1z"/>
 </g>
<g id="layer103" fill="#443f50" stroke="none">
 <path d="M7615 14395 c-5 -2 -71 -9 -145 -15 -261 -20 -421 -42 -700 -94 -221 -41 -464 -104 -725 -187 -128 -40 -216 -70 -242 -80 -59 -23 -70 -28 -105 -43 -20 -9 -41 -16 -47 -16 -6 0 -19 -4 -29 -9 -9 -5 -33 -16 -52 -24 -19 -8 -56 -24 -82 -36 -26 -12 -50 -21 -53 -21 -25 0 -571 -275 -595 -300 -3 -3 -24 -14 -47 -25 -24 -11 -43 -23 -43 -27 0 -5 -4 -8 -9 -8 -13 0 -135 -73 -139 -82 -2 -5 -10 -8 -17 -8 -7 0 -15 -3 -17 -7 -4 -11 -86 -63 -98 -63 -5 0 -10 -3 -10 -8 0 -4 -16 -16 -35 -26 -19 -10 -42 -26 -52 -35 -10 -9 -45 -34 -78 -56 -33 -22 -69 -48 -79 -57 -11 -10 -23 -18 -27 -18 -4 0 -24 -16 -45 -35 -22 -19 -42 -35 -45 -35 -3 0 -15 -8 -27 -18 -11 -10 -33 -27 -47 -38 -27 -19 -50 -38 -95 -77 -14 -12 -50 -42 -80 -67 -30 -24 -62 -51 -70 -60 -8 -8 -45 -41 -82 -73 -86 -74 -371 -359 -445 -445 -32 -37 -65 -74 -73 -82 -9 -8 -36 -40 -60 -70 -25 -30 -55 -66 -67 -80 -39 -45 -58 -68 -77 -95 -11 -14 -28 -36 -38 -47 -10 -12 -18 -24 -18 -27 0 -3 -16 -23 -35 -45 -19 -21 -35 -41 -35 -45 0 -4 -8 -16 -18 -27 -9 -10 -35 -46 -57 -79 -22 -33 -47 -68 -56 -78 -9 -10 -25 -33 -35 -52 -10 -19 -22 -35 -26 -35 -5 0 -8 -5 -8 -10 0 -12 -52 -94 -62 -98 -5 -2 -8 -10 -8 -17 0 -7 -3 -15 -8 -17 -9 -4 -82 -126 -82 -139 0 -5 -3 -9 -7 -9 -5 0 -17 -19 -28 -43 -11 -23 -22 -44 -25 -47 -25 -24 -300 -570 -300 -595 0 -3 -9 -27 -21 -53 -12 -26 -28 -63 -36 -82 -8 -19 -19 -43 -24 -52 -5 -10 -9 -23 -9 -29 0 -6 -7 -27 -16 -47 -9 -21 -19 -46 -24 -57 -4 -11 -12 -31 -18 -45 -16 -41 -90 -266 -131 -406 -23 -76 -76 -280 -93 -354 -5 -25 -14 -63 -19 -85 -9 -41 -34 -170 -50 -260 -29 -168 -29 -175 -71 -540 -8 -72 -12 -1053 -15 -3528 l-3 -3427 3427 3 c2475 3 3456 7 3528 15 365 42 372 42 540 71 90 16 219 41 260 50 22 5 60 14 85 19 139 31 337 86 515 143 217 69 248 80 347 123 20 9 41 16 47 16 6 0 19 4 29 9 9 5 33 16 52 24 19 8 56 24 82 36 26 12 50 21 53 21 25 0 571 275 595 300 3 3 24 14 47 25 24 11 43 23 43 28 0 4 4 7 9 7 13 0 135 73 139 82 2 5 10 8 17 8 7 0 15 3 17 8 4 10 86 62 98 62 5 0 10 3 10 8 0 4 16 16 35 26 19 10 42 26 52 35 10 9 45 34 78 56 33 22 69 48 79 57 11 10 23 18 27 18 4 0 24 16 45 35 22 19 42 35 45 35 3 0 15 8 27 18 11 10 33 27 47 38 27 19 50 38 95 77 14 12 50 42 80 67 30 24 62 51 70 60 8 8 45 41 82 73 86 74 371 359 445 445 32 37 65 74 73 82 9 8 36 40 60 70 25 30 55 66 67 80 39 45 58 68 77 95 11 14 28 36 38 47 10 12 18 24 18 27 0 3 16 23 35 45 19 21 35 41 35 45 0 4 8 16 18 27 9 10 35 46 57 79 22 33 47 68 56 78 9 10 25 33 35 52 10 19 22 35 26 35 5 0 8 5 8 10 0 12 52 94 63 98 4 2 7 10 7 17 0 7 3 15 8 17 9 4 82 126 82 139 0 5 3 9 8 9 4 0 16 19 27 43 11 23 22 44 25 47 25 24 300 570 300 595 0 3 9 27 21 53 12 26 28 63 36 82 8 19 19 43 24 52 5 10 9 23 9 29 0 6 7 27 16 47 15 35 20 46 43 105 17 41 92 274 130 403 23 76 76 280 93 354 5 25 14 63 19 85 14 62 43 216 69 375 12 75 34 259 52 445 8 81 13 282 13 535 0 253 -5 454 -13 535 -30 312 -47 430 -96 695 -41 221 -104 464 -187 725 -69 217 -80 248 -123 347 -9 20 -16 41 -16 47 0 6 -4 19 -9 29 -5 9 -16 33 -24 52 -8 19 -24 56 -36 82 -12 26 -21 50 -21 53 0 25 -275 571 -300 595 -3 3 -14 24 -25 47 -11 24 -23 43 -27 43 -5 0 -8 4 -8 9 0 13 -73 135 -82 139 -5 2 -8 10 -8 17 0 7 -3 15 -7 17 -11 4 -63 86 -63 98 0 5 -3 10 -8 10 -4 0 -16 16 -26 35 -10 19 -26 42 -35 52 -9 10 -34 45 -56 78 -22 33 -48 69 -57 79 -10 11 -18 23 -18 27 0 4 -16 24 -35 45 -19 22 -35 42 -35 45 0 3 -8 15 -18 27 -10 11 -27 33 -38 47 -19 27 -38 50 -77 95 -12 14 -42 50 -67 80 -24 30 -51 62 -60 70 -8 8 -41 45 -73 82 -74 86 -359 371 -445 445 -37 32 -74 65 -82 73 -8 9 -40 36 -70 60 -30 25 -66 55 -80 67 -45 39 -68 58 -95 77 -14 11 -36 28 -47 38 -12 10 -24 18 -27 18 -3 0 -23 16 -45 35 -21 19 -41 35 -45 35 -4 0 -16 8 -27 18 -10 9 -46 35 -79 57 -33 22 -68 47 -78 56 -10 9 -33 25 -52 35 -19 10 -35 22 -35 26 0 5 -5 8 -10 8 -12 0 -94 52 -98 63 -2 4 -10 7 -17 7 -7 0 -15 3 -17 8 -4 9 -126 82 -139 82 -5 0 -9 3 -9 8 0 4 -19 16 -43 27 -23 11 -44 22 -47 25 -24 25 -570 300 -595 300 -3 0 -27 9 -53 21 -26 12 -63 28 -82 36 -19 8 -43 19 -52 24 -10 5 -23 9 -29 9 -6 0 -27 7 -47 16 -35 15 -46 20 -104 43 -42 17 -275 92 -404 130 -76 23 -280 76 -354 93 -25 5 -63 14 -85 19 -62 14 -217 43 -375 69 -64 11 -230 31 -425 51 -96 10 -919 23 -940 14z m-2724 -1262 c-32 -65 -95 -192 -140 -283 l-82 -165 56 -129 c73 -170 112 -241 138 -255 12 -6 85 -31 162 -57 171 -56 147 -57 545 18 81 16 270 16 330 1 157 -38 201 -44 257 -33 97 17 166 13 228 -16 58 -26 74 -48 96 -131 9 -35 12 -43 53 -193 53 -188 58 -214 52 -270 -8 -82 -25 -305 -36 -480 -5 -85 -14 -209 -19 -275 -5 -66 -12 -183 -15 -260 -4 -77 -11 -198 -16 -270 -10 -125 -15 -167 -40 -300 -18 -99 -40 -237 -47 -291 -7 -64 0 -87 78 -261 11 -23 19 -44 19 -47 0 -3 13 -34 29 -68 105 -233 183 -484 166 -538 -3 -11 -39 -44 -78 -74 -40 -29 -94 -74 -119 -98 l-47 -43 -10 -150 c-6 -82 -14 -222 -19 -310 l-7 -160 -2250 -3 -2250 -2 2 72 c2 40 5 143 7 228 7 218 26 431 56 613 41 241 65 370 90 467 5 19 21 85 36 145 15 61 35 135 44 165 10 30 25 82 35 115 32 110 122 368 149 428 8 18 31 73 51 122 98 241 261 561 418 820 109 181 343 513 460 654 89 106 129 152 259 295 197 218 359 371 649 613 49 40 79 63 224 171 92 69 408 282 418 282 3 0 29 16 58 35 30 19 57 35 61 35 4 0 -19 -53 -51 -117z m6704 -235 c200 -148 270 -205 479 -392 164 -146 243 -225 394 -392 217 -239 287 -323 418 -504 30 -41 60 -82 67 -90 12 -14 209 -313 234 -355 154 -254 312 -565 413 -810 23 -55 45 -109 50 -120 27 -60 129 -349 155 -440 10 -33 24 -80 32 -104 16 -52 60 -216 74 -281 6 -25 14 -63 20 -85 15 -66 53 -265 69 -365 43 -272 60 -446 66 -670 2 -80 5 -180 7 -222 l2 -78 -2198 0 -2198 0 -18 43 c-10 23 -22 58 -26 77 -7 33 -29 86 -77 189 -14 29 -31 48 -49 55 -36 13 -37 18 -50 140 -18 186 -31 281 -41 299 -5 11 -31 28 -56 39 -26 11 -84 37 -128 58 l-81 38 -11 98 c-6 55 -14 122 -17 149 -9 76 -22 223 -35 385 -6 80 -15 170 -20 200 -8 56 4 132 77 470 15 70 28 173 33 265 4 83 14 249 21 370 17 271 17 646 1 780 -7 55 -16 224 -21 375 -6 151 -13 311 -17 356 -6 79 -6 81 17 87 13 4 85 7 160 7 86 0 186 8 270 20 231 35 252 39 344 54 50 9 112 16 139 16 53 0 99 12 156 40 64 31 173 91 227 126 29 19 56 34 59 34 3 0 51 26 107 59 56 32 118 67 137 78 52 29 121 68 160 90 19 11 58 32 85 47 28 16 55 32 60 36 6 4 40 23 78 43 l68 36 137 -92 c75 -51 178 -122 227 -159z m-3322 -532 c87 -43 164 -88 172 -99 36 -51 62 -190 75 -388 27 -435 31 -560 20 -617 -9 -48 -31 -170 -70 -397 -4 -27 -15 -93 -24 -145 -8 -52 -20 -124 -26 -160 -6 -36 -15 -94 -20 -130 -5 -36 -11 -74 -14 -85 -3 -11 -12 -60 -21 -110 -30 -174 -35 -201 -51 -280 -9 -44 -22 -118 -30 -165 -8 -47 -18 -105 -23 -130 -5 -25 -14 -72 -21 -105 -6 -33 -15 -82 -20 -110 -6 -27 -15 -79 -20 -115 -13 -80 -27 -133 -51 -187 -11 -24 -19 -45 -19 -48 0 -6 -9 -26 -66 -153 -14 -31 -30 -52 -37 -49 -13 4 -39 38 -258 332 -73 99 -137 185 -142 190 -4 6 -46 62 -93 125 -47 63 -96 129 -109 145 -31 39 -75 156 -75 201 0 37 -28 102 -53 123 -36 29 -40 66 -19 153 47 194 54 307 50 848 -3 328 -8 531 -16 580 -14 86 -40 281 -52 390 -5 41 -13 109 -19 150 -5 41 -12 118 -16 171 -5 87 -4 97 12 104 39 15 522 43 728 41 l150 -1 158 -79z m-1699 -6081 c143 -41 285 -82 313 -90 61 -18 68 -30 123 -195 17 -52 35 -103 41 -113 5 -10 18 -44 29 -75 10 -31 30 -88 45 -127 31 -81 62 -167 100 -280 15 -44 33 -93 40 -110 30 -69 36 -84 63 -165 64 -186 73 -205 110 -238 20 -18 57 -43 82 -54 25 -12 80 -42 123 -66 l77 -46 0 -70 c-1 -39 -5 -105 -10 -146 -6 -41 -17 -140 -25 -220 -13 -127 -13 -146 0 -160 8 -9 15 -22 15 -28 0 -7 3 -12 8 -12 4 0 16 -16 26 -35 11 -19 22 -35 26 -35 4 0 22 -21 40 -47 55 -80 113 -155 147 -192 18 -20 33 -42 33 -48 0 -7 4 -13 8 -13 4 0 15 -12 24 -27 28 -47 162 -180 204 -201 21 -11 49 -30 61 -41 12 -12 24 -21 27 -21 3 0 39 -22 80 -49 63 -41 89 -51 164 -65 81 -15 95 -15 168 0 43 9 96 27 116 40 21 13 42 24 47 24 17 0 151 139 151 156 0 3 9 19 21 35 19 28 56 137 64 189 2 14 6 45 10 70 7 44 3 66 -40 275 -18 87 -27 459 -12 527 6 29 18 44 53 68 25 16 49 30 54 30 4 0 10 3 12 8 4 10 95 72 106 72 5 0 21 10 35 23 15 12 43 31 64 42 39 20 51 28 143 89 30 20 60 36 65 36 6 1 26 14 45 30 19 17 39 30 46 30 6 0 19 9 29 20 10 11 24 20 31 20 8 0 25 18 38 39 14 22 30 42 36 46 5 3 18 21 27 38 15 30 24 104 53 472 5 66 13 152 19 190 5 39 12 124 16 190 l7 120 170 49 170 50 412 -102 411 -102 190 49 c235 61 514 133 662 171 l112 29 398 -79 c978 -193 896 -180 1101 -180 100 0 182 -4 182 -8 0 -12 -43 -137 -68 -197 -11 -27 -41 -104 -67 -170 -26 -66 -64 -156 -85 -200 -114 -242 -255 -514 -277 -537 -7 -6 -13 -16 -13 -22 0 -5 -20 -40 -45 -77 -25 -37 -45 -72 -45 -78 0 -6 -3 -11 -8 -11 -4 0 -13 -14 -20 -30 -8 -17 -33 -57 -57 -89 -24 -32 -50 -72 -58 -87 -9 -16 -25 -39 -36 -51 -12 -12 -21 -25 -21 -28 0 -3 -29 -44 -65 -91 -36 -47 -65 -88 -65 -92 0 -4 -18 -26 -40 -50 -22 -24 -40 -46 -40 -50 0 -4 -17 -26 -38 -49 -20 -23 -53 -61 -72 -84 -19 -24 -44 -52 -56 -63 -11 -12 -48 -52 -81 -91 -78 -90 -338 -350 -428 -428 -38 -33 -79 -70 -91 -81 -11 -12 -39 -37 -63 -56 -23 -19 -61 -52 -84 -72 -23 -21 -45 -38 -49 -38 -4 0 -26 -18 -50 -40 -24 -22 -46 -40 -50 -40 -4 0 -45 -29 -92 -65 -47 -36 -88 -65 -91 -65 -3 0 -16 -9 -28 -21 -12 -11 -35 -27 -51 -36 -15 -8 -55 -34 -87 -58 -32 -24 -72 -49 -89 -57 -16 -7 -30 -16 -30 -20 0 -5 -5 -8 -11 -8 -6 0 -41 -20 -78 -45 -37 -25 -72 -45 -77 -45 -6 0 -16 -6 -22 -12 -22 -22 -261 -146 -517 -268 -71 -34 -173 -78 -270 -115 -38 -15 -101 -39 -140 -55 -106 -42 -282 -100 -304 -100 -11 0 -23 -4 -26 -10 -3 -5 -14 -10 -24 -10 -10 0 -52 -11 -94 -25 -41 -13 -115 -33 -164 -45 -48 -11 -104 -25 -123 -30 -105 -27 -149 -35 -335 -64 -49 -8 -110 -19 -135 -24 -124 -28 -382 -51 -710 -62 -140 -5 -1608 -9 -3262 -9 l-3008 -1 0 2130 0 2130 375 0 375 0 128 31 c70 16 199 48 287 70 l159 40 136 -11 c74 -5 198 -14 275 -20 77 -5 208 -15 290 -22 198 -15 328 -15 450 0 111 13 174 21 445 53 263 31 318 28 654 -29 l290 -49 135 29 c75 16 190 40 256 54 66 14 122 28 124 30 7 6 -2 9 275 -71z"/>
 <path d="M4490 5268 c-32 -8 -62 -21 -187 -80 -63 -29 -185 -156 -218 -225 -80 -169 -84 -185 -84 -323 0 -138 4 -154 84 -323 37 -77 155 -195 232 -232 169 -80 185 -84 323 -84 140 0 150 3 337 91 63 29 185 156 218 225 80 169 84 185 84 323 0 140 -3 150 -91 337 -29 63 -156 185 -225 218 -114 54 -139 64 -178 74 -50 12 -248 12 -295 -1z"/>
 </g>
<g id="layer104" fill="#7fb7a8" stroke="none">
 <path d="M7615 14395 c-5 -2 -71 -9 -145 -15 -261 -20 -421 -42 -700 -94 -221 -41 -464 -104 -725 -187 -128 -40 -216 -70 -242 -80 -59 -23 -70 -28 -105 -43 -20 -9 -41 -16 -47 -16 -6 0 -19 -4 -29 -9 -9 -5 -33 -16 -52 -24 -19 -8 -56 -24 -82 -36 -26 -12 -50 -21 -53 -21 -25 0 -571 -275 -595 -300 -3 -3 -24 -14 -47 -25 -24 -11 -43 -23 -43 -27 0 -5 -4 -8 -9 -8 -13 0 -135 -73 -139 -82 -2 -5 -10 -8 -17 -8 -7 0 -15 -3 -17 -7 -4 -11 -86 -63 -98 -63 -5 0 -10 -3 -10 -8 0 -4 -16 -16 -35 -26 -19 -10 -42 -26 -52 -35 -10 -9 -45 -34 -78 -56 -33 -22 -69 -48 -79 -57 -11 -10 -23 -18 -27 -18 -4 0 -24 -16 -45 -35 -22 -19 -42 -35 -45 -35 -3 0 -15 -8 -27 -18 -11 -10 -33 -27 -47 -38 -27 -19 -50 -38 -95 -77 -14 -12 -50 -42 -80 -67 -30 -24 -62 -51 -70 -60 -8 -8 -45 -41 -82 -73 -86 -74 -371 -359 -445 -445 -32 -37 -65 -74 -73 -82 -9 -8 -36 -40 -60 -70 -25 -30 -55 -66 -67 -80 -39 -45 -58 -68 -77 -95 -11 -14 -28 -36 -38 -47 -10 -12 -18 -24 -18 -27 0 -3 -16 -23 -35 -45 -19 -21 -35 -41 -35 -45 0 -4 -8 -16 -18 -27 -9 -10 -35 -46 -57 -79 -22 -33 -47 -68 -56 -78 -9 -10 -25 -33 -35 -52 -10 -19 -22 -35 -26 -35 -5 0 -8 -5 -8 -10 0 -12 -52 -94 -62 -98 -5 -2 -8 -10 -8 -17 0 -7 -3 -15 -8 -17 -9 -4 -82 -126 -82 -139 0 -5 -3 -9 -7 -9 -5 0 -17 -19 -28 -43 -11 -23 -22 -44 -25 -47 -25 -24 -300 -570 -300 -595 0 -3 -9 -27 -21 -53 -12 -26 -28 -63 -36 -82 -8 -19 -19 -43 -24 -52 -5 -10 -9 -23 -9 -29 0 -6 -7 -27 -16 -47 -9 -21 -19 -46 -24 -57 -4 -11 -12 -31 -18 -45 -16 -41 -90 -266 -131 -406 -23 -76 -76 -280 -93 -354 -5 -25 -14 -63 -19 -85 -9 -41 -34 -170 -50 -260 -29 -168 -29 -175 -71 -540 -8 -72 -12 -1053 -15 -3528 l-3 -3427 3427 3 c2475 3 3456 7 3528 15 365 42 372 42 540 71 90 16 219 41 260 50 22 5 60 14 85 19 139 31 337 86 515 143 217 69 248 80 347 123 20 9 41 16 47 16 6 0 19 4 29 9 9 5 33 16 52 24 19 8 56 24 82 36 26 12 50 21 53 21 25 0 571 275 595 300 3 3 24 14 47 25 24 11 43 23 43 28 0 4 4 7 9 7 13 0 135 73 139 82 2 5 10 8 17 8 7 0 15 3 17 8 4 10 86 62 98 62 5 0 10 3 10 8 0 4 16 16 35 26 19 10 42 26 52 35 10 9 45 34 78 56 33 22 69 48 79 57 11 10 23 18 27 18 4 0 24 16 45 35 22 19 42 35 45 35 3 0 15 8 27 18 11 10 33 27 47 38 27 19 50 38 95 77 14 12 50 42 80 67 30 24 62 51 70 60 8 8 45 41 82 73 86 74 371 359 445 445 32 37 65 74 73 82 9 8 36 40 60 70 25 30 55 66 67 80 39 45 58 68 77 95 11 14 28 36 38 47 10 12 18 24 18 27 0 3 16 23 35 45 19 21 35 41 35 45 0 4 8 16 18 27 9 10 35 46 57 79 22 33 47 68 56 78 9 10 25 33 35 52 10 19 22 35 26 35 5 0 8 5 8 10 0 12 52 94 63 98 4 2 7 10 7 17 0 7 3 15 8 17 9 4 82 126 82 139 0 5 3 9 8 9 4 0 16 19 27 43 11 23 22 44 25 47 25 24 300 570 300 595 0 3 9 27 21 53 12 26 28 63 36 82 8 19 19 43 24 52 5 10 9 23 9 29 0 6 7 27 16 47 15 35 20 46 43 105 17 41 92 274 130 403 23 76 76 280 93 354 5 25 14 63 19 85 14 62 43 216 69 375 12 75 34 259 52 445 8 81 13 282 13 535 0 253 -5 454 -13 535 -30 312 -47 430 -96 695 -41 221 -104 464 -187 725 -69 217 -80 248 -123 347 -9 20 -16 41 -16 47 0 6 -4 19 -9 29 -5 9 -16 33 -24 52 -8 19 -24 56 -36 82 -12 26 -21 50 -21 53 0 25 -275 571 -300 595 -3 3 -14 24 -25 47 -11 24 -23 43 -27 43 -5 0 -8 4 -8 9 0 13 -73 135 -82 139 -5 2 -8 10 -8 17 0 7 -3 15 -7 17 -11 4 -63 86 -63 98 0 5 -3 10 -8 10 -4 0 -16 16 -26 35 -10 19 -26 42 -35 52 -9 10 -34 45 -56 78 -22 33 -48 69 -57 79 -10 11 -18 23 -18 27 0 4 -16 24 -35 45 -19 22 -35 42 -35 45 0 3 -8 15 -18 27 -10 11 -27 33 -38 47 -19 27 -38 50 -77 95 -12 14 -42 50 -67 80 -24 30 -51 62 -60 70 -8 8 -41 45 -73 82 -74 86 -359 371 -445 445 -37 32 -74 65 -82 73 -8 9 -40 36 -70 60 -30 25 -66 55 -80 67 -45 39 -68 58 -95 77 -14 11 -36 28 -47 38 -12 10 -24 18 -27 18 -3 0 -23 16 -45 35 -21 19 -41 35 -45 35 -4 0 -16 8 -27 18 -10 9 -46 35 -79 57 -33 22 -68 47 -78 56 -10 9 -33 25 -52 35 -19 10 -35 22 -35 26 0 5 -5 8 -10 8 -12 0 -94 52 -98 63 -2 4 -10 7 -17 7 -7 0 -15 3 -17 8 -4 9 -126 82 -139 82 -5 0 -9 3 -9 8 0 4 -19 16 -43 27 -23 11 -44 22 -47 25 -24 25 -570 300 -595 300 -3 0 -27 9 -53 21 -26 12 -63 28 -82 36 -19 8 -43 19 -52 24 -10 5 -23 9 -29 9 -6 0 -27 7 -47 16 -35 15 -46 20 -104 43 -42 17 -275 92 -404 130 -76 23 -280 76 -354 93 -25 5 -63 14 -85 19 -62 14 -217 43 -375 69 -64 11 -230 31 -425 51 -96 10 -919 23 -940 14z m-2724 -1262 c-32 -65 -95 -192 -140 -283 l-82 -165 56 -129 c73 -170 112 -241 138 -255 12 -6 85 -31 162 -57 171 -56 147 -57 545 18 81 16 270 16 330 1 157 -38 201 -44 257 -33 97 17 166 13 228 -16 58 -26 74 -48 96 -131 9 -35 12 -43 53 -193 53 -188 58 -214 52 -270 -8 -82 -25 -305 -36 -480 -5 -85 -14 -209 -19 -275 -5 -66 -12 -183 -15 -260 -4 -77 -11 -198 -16 -270 -10 -125 -15 -167 -40 -300 -18 -99 -40 -237 -47 -291 -7 -64 0 -87 78 -261 11 -23 19 -44 19 -47 0 -3 13 -34 29 -68 105 -232 183 -484 166 -538 -3 -10 -31 -38 -63 -61 -31 -24 -84 -67 -118 -95 l-61 -53 -11 -143 c-6 -79 -14 -222 -18 -318 l-6 -175 -44 -43 c-31 -31 -44 -52 -44 -72 0 -16 20 -81 44 -147 24 -65 64 -176 90 -248 26 -71 57 -159 70 -195 13 -36 36 -99 51 -140 15 -41 39 -109 55 -150 15 -41 47 -127 70 -190 23 -63 53 -144 67 -179 13 -35 49 -134 80 -220 30 -86 72 -203 94 -261 21 -58 54 -150 74 -205 20 -55 47 -131 61 -170 14 -38 37 -101 51 -140 14 -38 38 -104 53 -145 15 -41 40 -109 55 -150 14 -41 30 -84 35 -95 5 -11 16 -42 25 -70 10 -27 21 -59 25 -70 5 -11 21 -54 36 -95 37 -102 38 -102 249 -214 95 -51 95 -51 95 -130 -1 -39 -5 -105 -10 -146 -6 -41 -17 -140 -25 -219 l-14 -143 81 -112 c45 -61 100 -133 123 -161 22 -27 60 -77 85 -110 24 -33 56 -74 70 -90 14 -17 38 -48 55 -69 16 -21 52 -54 80 -74 132 -96 264 -180 305 -195 178 -65 357 -21 491 120 89 93 129 179 160 343 10 56 9 79 -5 150 -58 296 -58 296 -54 501 2 142 7 200 16 212 16 19 208 147 221 147 5 0 11 4 13 8 2 5 44 32 93 62 225 134 371 237 413 292 48 63 57 97 72 283 11 135 24 284 39 465 5 58 14 173 20 255 13 172 28 333 42 455 17 142 14 396 -4 460 -9 30 -23 78 -31 105 -8 28 -35 109 -61 180 -26 72 -50 141 -55 155 -4 14 -25 70 -45 125 -20 55 -45 127 -56 160 -11 33 -24 69 -29 80 -16 37 -62 170 -74 215 -12 43 -33 92 -78 189 -14 29 -31 48 -49 55 -36 13 -37 18 -50 140 -18 186 -31 281 -41 299 -5 11 -31 28 -56 39 -26 11 -84 37 -128 58 l-81 38 -11 98 c-6 55 -14 122 -17 149 -9 76 -22 223 -35 385 -6 80 -15 170 -20 200 -8 56 4 132 77 470 15 70 28 173 33 265 4 83 14 249 21 370 17 271 17 646 1 780 -7 55 -16 224 -21 375 -6 151 -13 311 -17 356 -6 79 -6 81 17 87 13 4 85 7 160 7 86 0 186 8 270 20 231 35 252 39 344 54 50 9 112 16 139 16 53 0 99 12 156 40 64 31 173 91 227 126 29 19 56 34 59 34 3 0 51 26 107 59 56 32 125 71 152 86 28 16 65 37 83 47 17 10 47 26 65 36 17 10 52 30 77 44 25 14 77 44 116 66 39 22 77 42 85 44 26 6 422 -269 598 -415 290 -242 452 -395 649 -613 217 -239 287 -323 418 -504 30 -41 60 -82 67 -90 12 -14 209 -313 234 -355 154 -254 312 -565 413 -810 23 -55 45 -109 50 -120 27 -60 129 -349 155 -440 10 -33 24 -80 32 -104 16 -52 60 -216 74 -281 6 -25 14 -63 20 -85 15 -66 53 -265 69 -365 46 -293 60 -448 69 -742 12 -413 -10 -825 -59 -1120 -41 -242 -65 -371 -90 -468 -5 -19 -21 -84 -36 -145 -15 -60 -35 -135 -44 -165 -10 -30 -25 -82 -35 -115 -26 -92 -126 -375 -150 -430 -8 -16 -30 -70 -50 -120 -50 -123 -66 -157 -151 -330 -105 -213 -250 -477 -266 -483 -4 -2 -8 -8 -8 -14 0 -29 -326 -493 -453 -647 -89 -106 -129 -152 -259 -295 -197 -218 -359 -371 -649 -613 -49 -40 -79 -63 -224 -171 -115 -86 -409 -282 -423 -282 -6 0 -12 -4 -14 -8 -1 -5 -46 -32 -98 -62 -241 -137 -496 -264 -705 -350 -55 -23 -113 -48 -130 -55 -144 -64 -612 -211 -815 -256 -25 -5 -61 -14 -80 -18 -104 -25 -420 -82 -565 -101 -344 -45 -575 -48 -3837 -49 l-3008 -1 1 3008 c0 1654 4 3122 9 3262 13 373 27 526 80 828 33 190 48 266 70 352 5 19 21 85 36 145 15 61 35 135 44 165 10 30 25 82 35 115 32 110 122 368 149 428 8 18 31 73 51 122 98 241 261 561 418 820 109 181 343 513 460 654 89 106 129 152 259 295 197 218 359 371 649 613 49 40 79 63 224 171 92 69 408 282 418 282 3 0 29 16 58 35 30 19 57 35 61 35 4 0 -19 -53 -51 -117z m3382 -767 c87 -43 164 -88 172 -99 36 -51 62 -190 75 -388 27 -435 31 -560 20 -617 -9 -48 -31 -170 -70 -397 -4 -27 -15 -93 -24 -145 -8 -52 -20 -124 -26 -160 -6 -36 -15 -94 -20 -130 -5 -36 -11 -74 -14 -85 -3 -11 -12 -60 -21 -110 -30 -174 -35 -201 -51 -280 -9 -44 -22 -118 -30 -165 -8 -47 -18 -105 -23 -130 -5 -25 -14 -72 -21 -105 -6 -33 -15 -82 -20 -110 -6 -27 -15 -79 -20 -115 -13 -80 -27 -133 -51 -187 -11 -24 -19 -45 -19 -48 0 -6 -9 -26 -66 -153 -14 -31 -30 -52 -37 -49 -13 4 -39 38 -258 332 -73 99 -137 185 -142 190 -4 6 -46 62 -93 125 -47 63 -96 129 -109 145 -31 39 -75 156 -75 201 0 37 -28 102 -53 123 -36 29 -40 66 -19 153 47 194 54 307 50 848 -3 328 -8 531 -16 580 -14 86 -40 281 -52 390 -5 41 -13 109 -19 150 -5 41 -12 118 -16 171 -5 87 -4 97 12 104 39 15 522 43 728 41 l150 -1 158 -79z"/>
 <path d="M4500 5264 c-234 -50 -436 -254 -485 -489 -95 -454 306 -855 760 -760 238 50 440 252 490 490 95 456 -309 857 -765 759z"/>
 </g>
<g id="layer105" fill="#dbd7bc" stroke="none">
 <path d="M7780 14069 c-273 -8 -485 -26 -682 -59 -242 -41 -371 -65 -468 -90 -19 -5 -84 -21 -145 -36 -60 -15 -135 -35 -165 -44 -30 -10 -82 -25 -115 -35 -33 -9 -112 -35 -175 -57 -63 -22 -145 -51 -182 -64 -36 -12 -75 -27 -85 -33 -10 -5 -63 -28 -118 -51 -55 -22 -109 -45 -120 -50 -50 -21 -357 -174 -420 -208 -162 -88 -147 -73 -213 -206 -33 -66 -96 -195 -141 -286 l-82 -165 56 -129 c73 -170 112 -241 138 -255 12 -6 85 -31 162 -57 171 -56 147 -57 545 18 81 16 270 16 330 1 157 -38 201 -44 257 -33 97 17 166 13 228 -16 58 -26 74 -48 96 -129 12 -46 25 -91 53 -195 53 -188 58 -214 52 -270 -8 -82 -25 -305 -36 -480 -5 -85 -14 -209 -19 -275 -5 -66 -12 -183 -15 -260 -4 -77 -11 -198 -16 -270 -10 -125 -15 -167 -40 -300 -18 -99 -40 -237 -47 -291 -7 -64 0 -88 77 -258 11 -25 20 -47 20 -50 0 -3 13 -34 29 -68 105 -232 183 -484 166 -538 -3 -10 -31 -38 -63 -61 -31 -24 -84 -67 -118 -95 l-61 -53 -11 -143 c-6 -79 -14 -222 -18 -318 l-6 -175 -44 -43 c-31 -31 -44 -52 -44 -72 0 -16 20 -81 44 -147 24 -65 64 -176 90 -248 26 -71 57 -159 70 -195 13 -36 36 -99 51 -140 15 -41 39 -109 55 -150 15 -41 47 -127 70 -190 23 -63 53 -144 67 -179 13 -35 49 -134 80 -220 30 -86 72 -203 94 -261 21 -58 54 -150 74 -205 20 -55 47 -130 60 -167 14 -38 37 -101 51 -140 15 -40 39 -107 54 -148 15 -41 40 -109 55 -150 14 -41 30 -84 35 -95 5 -11 16 -42 25 -70 10 -27 21 -59 25 -70 5 -11 21 -54 36 -95 37 -102 38 -102 249 -214 95 -51 95 -51 95 -130 -1 -39 -5 -105 -10 -146 -6 -41 -17 -140 -25 -219 l-14 -143 81 -112 c45 -61 100 -133 123 -161 22 -27 60 -77 85 -110 24 -33 56 -74 70 -90 14 -17 38 -48 55 -69 16 -21 52 -54 80 -74 132 -96 264 -180 305 -195 178 -65 357 -21 491 120 89 93 129 179 160 343 10 56 9 79 -5 150 -58 296 -58 296 -54 501 2 142 7 200 16 212 16 19 208 147 221 147 5 0 11 4 13 8 2 5 44 32 93 62 225 134 371 237 413 292 48 63 57 97 72 283 11 135 24 284 39 465 5 58 14 173 20 255 13 172 28 333 42 455 17 142 14 396 -4 460 -9 30 -23 78 -31 105 -8 28 -35 109 -61 180 -26 72 -50 141 -55 155 -4 14 -25 70 -45 125 -20 55 -45 127 -56 160 -11 33 -24 69 -29 80 -16 37 -62 170 -74 215 -12 43 -33 92 -78 189 -14 29 -31 48 -49 55 -36 13 -37 18 -50 140 -18 186 -31 281 -41 299 -5 11 -31 28 -56 39 -26 11 -84 37 -128 58 l-81 38 -11 98 c-6 55 -14 122 -17 149 -9 76 -22 223 -35 385 -6 80 -15 170 -20 200 -8 56 4 132 77 470 15 70 28 173 33 265 4 83 14 249 21 370 17 271 17 646 1 780 -7 55 -16 224 -21 375 -6 151 -13 311 -17 356 -6 79 -6 81 17 87 13 4 85 7 160 7 86 0 186 8 270 20 231 35 252 39 344 54 50 9 112 16 139 16 53 0 99 12 156 40 64 31 173 91 227 126 29 19 56 34 59 34 3 0 51 26 107 59 56 32 125 71 152 86 28 16 66 37 85 48 19 11 55 31 80 45 25 14 59 33 75 42 17 10 59 34 95 54 96 55 100 61 57 83 -19 10 -77 43 -128 72 -136 80 -214 122 -399 212 -188 92 -172 85 -305 139 -55 23 -108 46 -118 51 -10 6 -49 21 -85 33 -37 13 -119 42 -182 64 -63 22 -142 48 -175 57 -33 10 -85 25 -115 35 -30 9 -104 29 -165 44 -60 15 -126 31 -145 36 -97 25 -226 49 -467 90 -182 30 -395 49 -613 56 -85 2 -186 5 -225 7 -38 1 -167 -1 -285 -4z m493 -1703 c87 -43 164 -88 172 -99 36 -51 62 -190 75 -388 27 -435 31 -560 20 -617 -9 -48 -31 -170 -70 -397 -4 -27 -15 -93 -24 -145 -8 -52 -20 -124 -26 -160 -6 -36 -15 -94 -20 -130 -5 -36 -11 -74 -14 -85 -3 -11 -12 -60 -21 -110 -30 -174 -35 -201 -51 -280 -9 -44 -22 -118 -30 -165 -8 -47 -18 -105 -23 -130 -5 -25 -14 -72 -21 -105 -6 -33 -15 -82 -20 -110 -6 -27 -15 -79 -20 -115 -13 -80 -27 -133 -51 -187 -11 -24 -19 -45 -19 -48 0 -6 -9 -26 -66 -153 -14 -31 -30 -52 -37 -49 -13 4 -39 38 -258 332 -73 99 -137 185 -142 190 -4 6 -46 62 -93 125 -47 63 -96 129 -109 145 -31 39 -75 156 -75 201 0 37 -28 102 -53 123 -36 29 -40 66 -19 153 47 194 54 307 50 848 -3 328 -8 531 -16 580 -14 86 -40 281 -52 390 -5 41 -13 109 -19 150 -5 41 -12 118 -16 171 -5 87 -4 97 12 104 39 15 522 43 728 41 l150 -1 158 -79z"/>
 <path d="M1600 4795 l0 -3195 3200 0 3200 0 0 160 0 160 -3040 0 -3040 0 0 3035 0 3035 -160 0 -160 0 0 -3195z"/>
 <path d="M4500 5264 c-234 -50 -436 -254 -485 -489 -95 -454 306 -855 760 -760 238 50 440 252 490 490 95 456 -309 857 -765 759z"/>
 </g>
<g id="layer106" fill="#fdfefd" stroke="none">
 <path d="M7785 14069 c-224 -6 -455 -24 -545 -40 -30 -6 -100 -17 -155 -24 -97 -13 -129 -19 -285 -49 -232 -44 -732 -184 -845 -235 -11 -5 -42 -17 -70 -26 -27 -10 -61 -22 -75 -27 -14 -6 -34 -14 -45 -19 -111 -45 -228 -94 -265 -111 -111 -51 -332 -162 -405 -203 -44 -26 -94 -53 -110 -61 -24 -11 -41 -36 -78 -112 -26 -53 -52 -104 -57 -112 -4 -8 -48 -95 -96 -192 l-87 -176 20 -34 c11 -18 23 -47 27 -63 13 -51 124 -269 143 -281 10 -6 52 -21 93 -33 41 -12 91 -28 110 -36 106 -41 140 -42 305 -10 44 9 91 18 105 20 14 2 57 9 95 17 88 16 274 16 340 0 169 -40 188 -43 262 -31 87 14 197 7 221 -13 9 -8 25 -18 35 -21 18 -7 42 -54 58 -112 4 -16 12 -46 18 -65 5 -19 17 -63 25 -96 8 -34 26 -90 38 -125 19 -54 23 -82 21 -179 0 -63 -6 -160 -12 -215 -7 -55 -16 -172 -21 -260 -5 -88 -14 -214 -19 -280 -5 -66 -12 -183 -15 -260 -8 -184 -24 -385 -36 -460 -6 -33 -12 -80 -15 -103 -3 -24 -8 -48 -11 -53 -11 -18 -34 -195 -34 -266 0 -40 5 -85 11 -100 17 -42 49 -113 70 -156 11 -22 19 -43 19 -49 0 -5 12 -35 26 -66 14 -31 39 -90 55 -129 16 -40 33 -81 38 -90 14 -26 38 -109 52 -178 23 -119 23 -122 -3 -147 -44 -42 -88 -78 -95 -78 -15 0 -127 -112 -128 -128 -1 -9 -7 -66 -13 -127 -6 -60 -14 -195 -17 -300 l-6 -190 -45 -43 c-35 -35 -44 -51 -44 -77 0 -19 4 -36 9 -39 4 -3 11 -19 14 -36 4 -16 15 -49 25 -72 11 -24 25 -61 32 -83 6 -22 18 -54 26 -72 8 -17 14 -37 14 -45 0 -7 6 -25 14 -39 7 -14 21 -52 31 -85 10 -32 22 -63 26 -69 4 -5 12 -26 17 -45 19 -64 72 -215 81 -231 6 -9 28 -68 50 -130 60 -170 156 -433 171 -464 5 -11 25 -69 46 -130 20 -60 40 -116 45 -125 4 -8 27 -71 50 -140 23 -69 45 -129 49 -135 5 -5 16 -37 25 -70 10 -33 20 -64 24 -70 4 -5 13 -28 20 -50 13 -41 57 -164 71 -200 10 -24 39 -104 75 -205 15 -41 30 -84 35 -95 5 -11 16 -42 25 -70 22 -63 33 -93 51 -128 8 -16 14 -33 14 -38 0 -18 40 -99 50 -99 5 0 15 -7 24 -15 8 -9 57 -37 108 -63 51 -26 108 -58 126 -71 30 -24 32 -28 32 -90 -1 -62 -15 -219 -40 -424 l-10 -87 42 -58 c23 -31 44 -59 47 -62 3 -3 19 -24 35 -48 16 -23 32 -42 35 -42 4 0 15 -15 26 -32 10 -18 24 -37 30 -43 6 -5 31 -37 56 -70 24 -33 47 -61 52 -63 4 -2 7 -9 7 -15 0 -7 17 -31 38 -54 20 -23 50 -58 66 -77 15 -20 32 -36 37 -36 6 0 22 -11 37 -25 15 -14 32 -25 39 -25 6 0 13 -3 15 -8 3 -7 76 -59 147 -104 67 -43 110 -61 178 -74 63 -12 83 -12 147 1 41 7 93 24 116 37 24 13 53 29 65 35 44 25 143 142 172 205 17 35 40 109 53 166 20 90 22 110 12 160 -60 299 -64 330 -60 533 2 138 7 200 16 211 14 18 209 148 302 203 63 37 145 89 315 201 84 55 129 102 159 165 19 40 18 37 40 309 8 102 20 232 26 290 24 231 32 321 40 455 5 77 13 196 19 265 32 369 32 373 16 476 -18 108 -34 167 -71 259 -13 33 -31 85 -40 115 -9 30 -19 60 -23 65 -4 6 -16 37 -26 70 -10 33 -21 65 -25 70 -4 6 -11 26 -15 45 -4 19 -12 44 -19 55 -7 11 -22 54 -35 95 -12 41 -26 84 -30 95 -5 11 -14 33 -21 50 -17 42 -60 176 -60 186 0 9 -45 112 -78 178 -10 19 -29 39 -45 45 -15 6 -29 17 -32 26 -9 31 -25 157 -25 210 0 30 -9 91 -18 135 -20 89 -17 86 -157 145 -122 51 -119 48 -132 136 -6 43 -12 102 -12 129 -1 28 -6 66 -11 85 -6 19 -17 136 -26 260 -8 124 -19 250 -23 280 -7 43 -3 84 15 185 13 72 27 137 30 145 22 60 58 286 64 410 4 80 14 246 21 370 17 274 17 640 1 775 -7 55 -16 224 -21 375 -6 151 -13 311 -17 356 -6 79 -6 81 17 87 13 4 88 7 165 7 81 0 175 6 220 15 44 8 131 21 194 30 63 8 153 22 200 30 47 8 107 15 134 15 69 0 149 27 216 72 19 13 53 32 75 42 22 11 67 36 101 58 34 21 64 38 67 38 3 0 56 29 117 65 61 36 113 65 116 65 2 0 23 12 47 27 23 15 71 43 107 61 36 19 70 38 76 43 6 5 42 25 80 45 99 52 133 78 111 82 -9 2 -17 7 -17 12 0 4 -8 11 -17 14 -21 7 -55 27 -74 43 -8 5 -48 28 -89 51 -41 22 -106 57 -145 79 -127 70 -350 177 -510 243 -55 22 -110 45 -122 50 -43 19 -68 28 -118 45 -27 9 -59 21 -70 26 -113 51 -613 191 -845 236 -154 29 -178 33 -288 48 -62 8 -117 17 -121 19 -4 3 -57 10 -117 15 -389 35 -532 40 -889 30z m487 -1703 c87 -43 162 -84 168 -91 18 -22 50 -116 60 -180 10 -63 22 -239 40 -579 9 -170 9 -213 -4 -276 -8 -41 -20 -113 -26 -160 -6 -47 -16 -103 -22 -125 -6 -22 -14 -62 -18 -90 -29 -179 -40 -248 -50 -305 -6 -36 -15 -94 -20 -130 -6 -36 -14 -85 -19 -110 -5 -25 -18 -101 -29 -170 -12 -69 -28 -159 -37 -200 -9 -41 -23 -113 -31 -160 -8 -47 -19 -107 -24 -135 -5 -27 -14 -75 -20 -105 -6 -30 -15 -77 -20 -105 -5 -27 -17 -93 -25 -145 -8 -52 -26 -118 -40 -147 -14 -28 -25 -55 -25 -60 -1 -4 -9 -26 -20 -48 -11 -22 -19 -44 -20 -50 0 -21 -46 -105 -57 -105 -7 0 -25 16 -40 36 -15 21 -43 54 -60 74 -18 21 -33 42 -33 46 0 5 -13 24 -29 41 -16 18 -50 63 -75 100 -25 37 -57 80 -71 95 -14 15 -25 30 -25 34 0 3 -14 23 -30 43 -33 39 -34 40 -71 91 -118 162 -143 196 -153 205 -38 34 -92 162 -101 240 -5 33 -17 68 -31 88 -58 81 -59 82 -36 181 48 209 53 296 50 841 -3 332 -8 536 -16 585 -17 106 -44 302 -52 385 -4 39 -12 106 -18 150 -6 44 -13 123 -17 176 -5 87 -4 97 12 104 39 15 522 43 728 41 l150 -1 157 -79z"/>
 </g>

</svg>